<?xml version="1.0" encoding="utf-8"?>
<svg xmlns="http://www.w3.org/2000/svg" viewBox="0 0 500 500">
  <path d="M 233.57 38.689 C 227.738 41.517 212.661 49.174 200.063 55.705 C 187.466 62.236 176.796 67.581 176.354 67.581 C 175.912 67.581 163.636 72.894 149.077 79.39 C 134.516 85.885 118.152 93.009 112.71 95.219 C 107.267 97.43 100.27 100.324 97.161 101.652 C 94.051 102.977 84.351 107.088 75.604 110.787 C 59.701 117.51 59.701 117.51 59.701 137.498 C 59.701 279.412 121.508 394.455 233.267 460.554 C 247.416 468.923 253.304 467.246 277.214 448.044 C 280.81 445.155 285.473 441.948 287.576 440.916 C 294.091 437.72 329.525 406.695 337.366 397.321 C 357.312 373.474 383.408 337.26 383.408 333.429 C 383.408 333.058 384.68 331.026 386.235 328.914 C 393.443 319.114 413.459 270.968 418.916 250.3 C 427.083 219.364 432.16 171.306 431.188 134.117 C 430.735 116.723 429.189 115.553 384.115 98.431 C 379.451 96.659 368.954 92.149 360.792 88.406 C 326.168 72.541 318.178 68.947 317.502 68.947 C 317.112 68.947 306.495 63.624 293.911 57.117 C 241.611 30.076 247.574 31.896 233.57 38.689 M 242.199 63.591 C 235.154 66.319 178.44 123.428 178.44 127.794 C 178.44 134.704 188.078 136.978 196.11 131.966 C 198.442 130.51 210.494 119.739 222.89 108.027 C 249.828 82.578 243.17 82.608 268.475 107.822 C 295.898 135.149 303.573 139.339 312.866 132.055 C 317.59 128.354 316.85 127.363 287.286 97.783 C 252.682 63.159 249.516 60.757 242.199 63.591 M 240.734 109.195 C 237.2 113.322 238.647 450.892 242.214 453.761 C 245.919 456.739 247.608 456.715 251.424 453.629 C 256.351 449.643 257.352 115.103 252.452 110.359 C 248.832 106.856 243.22 106.3 240.734 109.195 M 340.295 134.55 C 335.576 136.422 278.881 193.766 274.52 201.079 C 265.967 215.42 266.083 213.591 266.083 333.986 C 266.083 394.408 266.414 443.841 266.818 443.841 C 268.111 443.841 278.534 437.162 279.429 435.759 C 279.905 435.016 280.291 391.431 280.29 338.903 C 280.288 203.109 276.246 219.385 320.676 176.232 C 354.158 143.713 355.509 141.823 349.484 135.991 C 346.45 133.055 344.738 132.786 340.295 134.55 M 143.205 138.228 C 138.398 144.143 138.157 143.837 174.614 178.482 C 216.965 218.732 213.603 204.842 213.687 339.856 C 213.714 384.632 213.748 424.777 213.759 429.068 C 213.779 436.451 223.952 448.135 227.429 444.767 C 227.831 444.381 228.152 395.219 228.14 335.521 C 228.118 195.004 232.172 210.866 184.662 165.318 C 150.481 132.548 148.743 131.413 143.205 138.228 M 345.042 172.592 C 285.157 231.306 292.324 210.35 291.843 328.123 C 291.417 432.559 291.029 428.042 299.779 420.79 C 305.911 415.71 305.911 415.71 306.66 346.085 C 307.184 297.336 307.887 275.859 309.008 274.461 C 309.889 273.361 330.518 253.015 354.85 229.246 C 402.642 182.564 404.125 180.603 394.953 176.202 C 389.449 173.561 387.506 174.983 360.449 201.442 C 323.895 237.186 313.724 248.142 309.267 256.581 C 305.391 263.92 305.391 263.92 306.05 251.344 C 306.977 233.727 323.654 213.192 375.918 165.313 C 382.731 159.071 383.53 155.267 378.901 151.095 C 373.062 145.828 371.006 147.135 345.042 172.592 M 113.521 153.279 C 109.121 158.69 108.049 157.346 147.135 195.453 C 192.23 239.415 187.016 221.903 187.177 329.973 C 187.307 418.894 188.509 427.118 201.412 427.399 C 203.09 427.437 202.676 250.234 200.974 239.976 C 198.019 222.191 195.7 219.119 157.857 182.853 C 120.757 147.299 119.215 146.269 113.521 153.279 M 95.322 177.312 C 90.346 182.128 92.647 184.964 134.082 225.088 C 176.779 266.433 179.855 268.662 179.855 258.22 C 179.855 248.861 171.559 238.999 130.829 199.937 C 103.393 173.623 100.824 171.986 95.322 177.312 M 90.092 208.096 C 86.596 208.889 83.732 212.305 83.732 215.673 C 83.732 217.879 117.4 250.818 144.861 275.482 C 161.402 290.337 162.659 296.91 160.454 356.959 C 159.296 388.428 159.296 388.428 166.993 396.972 C 176.74 407.793 175.741 412.184 176.618 354.674 C 177.716 282.704 180.029 288.436 130.778 241.001 C 111.439 222.376 95.011 207.21 94.269 207.297 C 93.526 207.385 91.648 207.745 90.092 208.096 M 360.82 241.668 C 313.212 287.547 317.786 276.408 317.264 347.723 C 317.039 378.765 317.384 404.163 318.03 404.163 C 318.679 404.163 322.046 401.362 325.513 397.939 C 332.626 390.912 331.846 398.628 332.825 325.489 C 333.331 287.826 330.435 292.996 374.817 250.433 C 410.072 216.623 411.856 214.297 406.267 209.403 C 400.266 204.145 398.333 205.519 360.82 241.668 M 403.198 243.642 C 379.186 251.72 331.642 318.45 341.675 329.991 C 346.169 335.16 348.064 335.549 348.084 331.305 C 348.125 321.735 356.219 311.206 386.381 281.472 C 397.964 270.056 407.468 260.205 407.502 259.582 C 407.536 258.958 408.115 255.677 408.79 252.29 C 409.586 248.307 409.504 245.529 408.557 244.422 C 406.996 242.599 406.512 242.528 403.198 243.642 M 83.432 245.014 C 81.542 245.494 81.199 246.584 81.866 249.985 C 83.508 258.356 87.089 262.715 111.29 285.811 C 140.68 313.863 143.101 317.981 143.101 339.923 C 143.101 350.287 146.484 351.454 147.868 341.567 C 148.368 337.992 150.137 331.374 151.802 326.858 C 157.439 311.556 128.401 272.302 92.832 247.143 C 88.461 244.051 87.804 243.901 83.432 245.014" stroke="none" fill="#1a1f29" fill-rule="evenodd" style=""/>
  <path d="M 229.33 7.734 C 222.722 11.059 208.409 18.458 197.523 24.177 C 177.244 34.831 116.528 62.788 91.416 73.034 C 83.692 76.186 74.189 80.182 70.303 81.913 C 66.415 83.645 58.378 87.006 52.438 89.382 C 30.563 98.139 30.71 97.811 30.81 137.553 C 31.076 242.903 58.402 323.909 118.904 398.69 C 142.204 427.49 170.747 453.398 201.765 473.893 C 207.985 478.004 215.619 483.236 218.732 485.521 C 242.799 503.195 245.365 502.922 282.338 478.717 C 388.124 409.468 449.359 306.992 459.748 181.827 C 461.679 158.552 461.555 106.46 459.561 102.721 C 457.931 99.666 451.37 93.714 449.535 93.626 C 447.8 93.543 392.416 70.573 367.859 59.753 C 337.495 46.372 309.384 32.749 278.036 16.219 C 246.703 -0.302 245.659 -0.482 229.33 7.734 M 233.57 38.689 C 227.738 41.517 212.661 49.174 200.063 55.705 C 187.466 62.236 176.796 67.581 176.354 67.581 C 175.912 67.581 163.636 72.894 149.077 79.39 C 134.516 85.885 118.152 93.009 112.71 95.219 C 107.267 97.43 100.27 100.324 97.161 101.652 C 94.051 102.977 84.351 107.088 75.604 110.787 C 59.701 117.51 59.701 117.51 59.701 137.498 C 59.701 279.412 121.508 394.455 233.267 460.554 C 247.416 468.923 253.304 467.246 277.214 448.044 C 280.81 445.155 285.473 441.948 287.576 440.916 C 294.091 437.72 329.525 406.695 337.366 397.321 C 357.312 373.474 383.408 337.26 383.408 333.429 C 383.408 333.058 384.68 331.026 386.235 328.914 C 393.443 319.114 413.459 270.968 418.916 250.3 C 427.083 219.364 432.16 171.306 431.188 134.117 C 430.735 116.723 429.189 115.553 384.115 98.431 C 379.451 96.659 368.954 92.149 360.792 88.406 C 326.168 72.541 318.178 68.947 317.502 68.947 C 317.112 68.947 306.495 63.624 293.911 57.117 C 241.611 30.076 247.574 31.896 233.57 38.689 M 242.199 63.591 C 235.154 66.319 178.44 123.428 178.44 127.794 C 178.44 134.704 188.078 136.978 196.11 131.966 C 198.442 130.51 210.494 119.739 222.89 108.027 C 249.828 82.578 243.17 82.608 268.475 107.822 C 295.898 135.149 303.573 139.339 312.866 132.055 C 317.59 128.354 316.85 127.363 287.286 97.783 C 252.682 63.159 249.516 60.757 242.199 63.591 M 240.734 109.195 C 237.2 113.322 238.647 450.892 242.214 453.761 C 245.919 456.739 247.608 456.715 251.424 453.629 C 256.351 449.643 257.352 115.103 252.452 110.359 C 248.832 106.856 243.22 106.3 240.734 109.195 M 340.295 134.55 C 335.576 136.422 278.881 193.766 274.52 201.079 C 265.967 215.42 266.083 213.591 266.083 333.986 C 266.083 394.408 266.414 443.841 266.818 443.841 C 268.111 443.841 278.534 437.162 279.429 435.759 C 279.905 435.016 280.291 391.431 280.29 338.903 C 280.288 203.109 276.246 219.385 320.676 176.232 C 354.158 143.713 355.509 141.823 349.484 135.991 C 346.45 133.055 344.738 132.786 340.295 134.55 M 143.205 138.228 C 138.398 144.143 138.157 143.837 174.614 178.482 C 216.965 218.732 213.603 204.842 213.687 339.856 C 213.714 384.632 213.748 424.777 213.759 429.068 C 213.779 436.451 223.952 448.135 227.429 444.767 C 227.831 444.381 228.152 395.219 228.14 335.521 C 228.118 195.004 232.172 210.866 184.662 165.318 C 150.481 132.548 148.743 131.413 143.205 138.228 M 345.042 172.592 C 285.157 231.306 292.324 210.35 291.843 328.123 C 291.417 432.559 291.029 428.042 299.779 420.79 C 305.911 415.71 305.911 415.71 306.66 346.085 C 307.184 297.336 307.887 275.859 309.008 274.461 C 309.889 273.361 330.518 253.015 354.85 229.246 C 402.642 182.564 404.125 180.603 394.953 176.202 C 389.449 173.561 387.506 174.983 360.449 201.442 C 323.895 237.186 313.724 248.142 309.267 256.581 C 305.391 263.92 305.391 263.92 306.05 251.344 C 306.977 233.727 323.654 213.192 375.918 165.313 C 382.731 159.071 383.53 155.267 378.901 151.095 C 373.062 145.828 371.006 147.135 345.042 172.592 M 113.521 153.279 C 109.121 158.69 108.049 157.346 147.135 195.453 C 192.23 239.415 187.016 221.903 187.177 329.973 C 187.307 418.894 188.509 427.118 201.412 427.399 C 203.09 427.437 202.676 250.234 200.974 239.976 C 198.019 222.191 195.7 219.119 157.857 182.853 C 120.757 147.299 119.215 146.269 113.521 153.279 M 95.322 177.312 C 90.346 182.128 92.647 184.964 134.082 225.088 C 176.779 266.433 179.855 268.662 179.855 258.22 C 179.855 248.861 171.559 238.999 130.829 199.937 C 103.393 173.623 100.824 171.986 95.322 177.312 M 90.092 208.096 C 86.596 208.889 83.732 212.305 83.732 215.673 C 83.732 217.879 117.4 250.818 144.861 275.482 C 161.402 290.337 162.659 296.91 160.454 356.959 C 159.296 388.428 159.296 388.428 166.993 396.972 C 176.74 407.793 175.741 412.184 176.618 354.674 C 177.716 282.704 180.029 288.436 130.778 241.001 C 111.439 222.376 95.011 207.21 94.269 207.297 C 93.526 207.385 91.648 207.745 90.092 208.096 M 360.82 241.668 C 313.212 287.547 317.786 276.408 317.264 347.723 C 317.039 378.765 317.384 404.163 318.03 404.163 C 318.679 404.163 322.046 401.362 325.513 397.939 C 332.626 390.912 331.846 398.628 332.825 325.489 C 333.331 287.826 330.435 292.996 374.817 250.433 C 410.072 216.623 411.856 214.297 406.267 209.403 C 400.266 204.145 398.333 205.519 360.82 241.668 M 403.198 243.642 C 379.186 251.72 331.642 318.45 341.675 329.991 C 346.169 335.16 348.064 335.549 348.084 331.305 C 348.125 321.735 356.219 311.206 386.381 281.472 C 397.964 270.056 407.468 260.205 407.502 259.582 C 407.536 258.958 408.115 255.677 408.79 252.29 C 409.586 248.307 409.504 245.529 408.557 244.422 C 406.996 242.599 406.512 242.528 403.198 243.642 M 83.432 245.014 C 81.542 245.494 81.199 246.584 81.866 249.985 C 83.508 258.356 87.089 262.715 111.29 285.811 C 140.68 313.863 143.101 317.981 143.101 339.923 C 143.101 350.287 146.484 351.454 147.868 341.567 C 148.368 337.992 150.137 331.374 151.802 326.858 C 157.439 311.556 128.401 272.302 92.832 247.143 C 88.461 244.051 87.804 243.901 83.432 245.014" stroke="none" fill="#41d7cb" fill-rule="evenodd" style=""/>
</svg>